<?xml version="1.0" encoding="UTF-8"?>
<svg xmlns="http://www.w3.org/2000/svg" viewBox="0 0 611.69 650.64">
  <g id="rentegning">
    <path d="M552.06,650.14H44.16s-18.06-349.19,0-388.24,497.47-52.03,507.9,0,0,388.24,0,388.24Z" style="fill: #fcfbe1;"/>
    <path d="M552.54,650.64H43.68c-1.47-17.69-16.57-387.88.02-388.94,6.31-13.66,68.59-25.32,166.58-31.2,96.62-1.52,296.56-16.92,342.26,31.29,10.32,52.03.11,384.93,0,388.85ZM44.63,649.64h506.94c.44-14.59,10.12-337.18,0-387.65-48.87-47.34-242.91-31.96-341.22-30.5-96.17,5.77-159.68,17.5-165.74,30.61-17.14,32.34-1.58,357.01.02,387.54Z" style="fill: #231f20;"/>
    <path d="M433.68,361.86c-27.62,22.86-141.78,0-141.78,0-77.17,9.02-219.41,47.87-118.58-99.85,0,0-48.73-64.18-30.08-82.01s139.92-17.83,139.92-17.83c57.47,5.79,226.15-27.1,125.83,106.96,0,0,52.33,69.88,24.71,92.73Z" style="fill: #aee2f8;"/>
    <path d="M191.49,372.78c-22.22,0-41.33-2.64-48.63-10.59-20.04-13.22,19.9-88.37,29.84-100.17-3.95-5.25-48.13-64.88-29.81-82.39,18.58-17.77,135.3-17.97,140.26-17.97.3-.01,31.86-1.06,66.03.61,113.11,3.22,107.99,33.64,60.42,106.85,99.81,137.35-55.62,102.55-117.7,93.25-4.22.77-57.96,10.41-100.39,10.41ZM307.15,162.34c-25.05,2.12-123.62-4.16-163.58,18.01-17.11,10.46,21.96,72.77,30.35,81.64-91.86,140.09,13.78,112.4,117.88,99.37,13.02,5.16,133.15,18.22,141.55.11l.32.38-.32-.38c26.86-22.72-24.21-91.19-25.01-92.35,74.71-103.17,5.82-105.86-101.19-106.78Z" style="fill: #231f20;"/>
    <path id="hoved" d="M325.3,269.12c-3.51,33.01-23.23,44.3-40.09,47.54-24.43,4.7-40.38-35.03-45.05-50.37-11.72-45.53,2.14-61.99,46.97-59.37,23.96,2.05,28.85,11.74,32.48,26.06,2.52,9.96,7.2,21.91,5.69,36.13Z" style="fill: #fcd7b8;"/>
    <path d="M281.22,317.55c-38.46-5.75-58.76-86.1-34.97-104.46,24.2-11.87,71.39-11.04,73.85,19.77,15.81,38.64-1.98,83.37-38.88,84.69ZM282.12,207.24c-10.96,0-28.71,2.06-35.3,6.67-20.16,19.34-6.84,60.01,8.87,84.8,21.36,34.93,64.47,14.29,69.12-29.64,1.22-11.44-1.59-21.35-4.07-30.08-3.27-18.27-11.09-32.23-38.62-31.74Z" style="fill: #231f20;"/>
    <path d="M330.02,232.77c5.55-17.16-15.3-17.33-11.03-1.51,2.47,8.95,5.15,13.77,8.64,12.81s-.6-2.51,2.39-11.3Z" style="fill: #fcd7b8;"/>
    <path d="M326.76,244.68c-5.39-1.22-6.04-6.91-8.26-13.3-4.63-16.56,17.9-16.36,11.99,1.54-3.04,6.1,1.96,11.15-3.73,11.76ZM325.53,219.98c-5.61.78-8.08,4.75-6.06,11.14,2.14,5.91,2.77,12.35,8.02,12.46,2.54-.34-.49-5.67,2.05-10.98h0c1.87-6.49.56-11.52-4.02-12.63Z" style="fill: #231f20;"/>
    <path d="M94.18,178.49c-23.85-.38-33.59-26.82-24.24-48.62,7.79-22.88,42.7-52.87,66.92-47.65,16.61,2.48,38.52,30.39,29.95,48.13-7.73,20.3-51.81,48.5-72.62,48.15ZM130.83,82.62c-33.91,1.54-79.16,50.07-57.96,83.3,19.54,32.19,82.96-12.69,93-35.94,8.48-19.35-15.81-48.57-35.04-47.36Z" style="fill: #231f20;"/>
    <path d="M191.05,471.01c15.2.53,59.1-62.05,176.16-21.47,0,0-5.79-68.36-6.95-68.19l5.47,35.72c-.1,1.07,58.61-5.26,95.65-5.13,0,0-28.58-87.88-89.11-98.02l-48.55,3.69c9.19,37.19-56.03,64.92-70.18,5.63,0,0-58.91,1.04-80.49,23.2l-22.75,33.24s27.41,36.16,9.91,63.57c0,0,33.05-.7,31.67,7.64,0,0,7.99-67.71,4.49-75.87l-5.33,95.99Z" style="fill: #f8ada3;"/>
    <path d="M191.7,450.32l-.81-2.11M190.89,448.21c-2.96-3.79-23.64-4.47-31.58-4.45,18.01-26.52-8.96-63.46-9.62-64.06,0,0,22.95-33.54,22.95-33.54,22.09-22.3,79.98-23.35,81.29-23.43,10.84,54.93,77.8,36.63,69.22-5.58.02,0,49.18-3.75,49.2-3.72,35.4.55,81.02,64.08,89.72,99.02-26.54-.88-75.99,5.18-96.85,4.83.07-.26-.98-6.36-.98-6.6,1.26,13.24,2.54,27.96,3.53,39.59-56.73-21.95-119.96-17.2-160.91,13.56-7.43,4.66-11.96,7.9-16.34,7.66l1.18-21.17M193.6,434.18l-2.02,36.33c3.33-.2,8.17-3.3,14.75-7.52,40.77-30.56,103.65-35.75,160.32-14.17-2.26-24.37-3.82-48.39-6.95-67.89l.71-.1c1.51,3.31,4.61,30.7,5.77,35.86,27.39-1.94,63.83-4.59,94.51-5.24-9.85-36.72-54.72-96.45-88.44-97.01,0,0-47.97,3.64-47.97,3.64,6.44,45.46-60.68,58.22-71.13,5.68-5.21.15-59.48,2.23-79.74,23.04l-22.49,32.89c2.52,3.48,25.91,37.1,10.2,63.09,5.06.04,25.03.42,29.92,4.23,1.7-7.54,4.36-65,4.96-74.13,4.13,7.67-.18,38.97-2.4,61.32ZM196.63,379.61l-1.93,34.68c1.31-13.54,2.34-27.41,1.93-34.68Z" style="fill: #231f20;"/>
    <path d="M82.92,532.43l-.04-1c15.25-.66,29.84-18.31,37.18-28.77,4.94-7.04,12.62-11.82,21.08-13.1,43.35-6.57,49.4-18.63,49.45-18.75l.91.41c-.23.51-6.14,12.65-50.22,19.33-8.19,1.24-15.63,5.87-20.41,12.69-16.48,23.49-29.74,28.84-37.96,29.2Z" style="fill: #231f20;"/>
    <rect x="376.68" y="443.58" width="1" height="22.63" transform="translate(-201.99 572.2) rotate(-61.79)" style="fill: #231f20;"/>
    <path d="M447.31,479.51c-23.16,0-24.05-8.02-24.08-8.37l1-.08-.5.04.5-.04c0,.08,1.07,7.86,24.98,7.43l.02,1c-.65.01-1.29.02-1.91.02Z" style="fill: #231f20;"/>
    <path d="M260.79,246.27c-4.23,0-7.46-2.04-7.52-2.08l.54-.84c.35.23,8.66,5.46,15.85-2.15l.73.69c-3.2,3.38-6.64,4.38-9.6,4.38Z" style="fill: #231f20;"/>
    <path d="M293.7,246.66c-5.19,0-9.08-4.22-9.25-4.41l.74-.67c3.59,4.66,13.45,6.47,18.22-2.61l.84.54c-3.09,4.71-6.41,7.09-10.55,7.14Z" style="fill: #231f20;"/>
    <line x1="323.72" y1="317.61" x2="321" y2="294.88" style="fill: #fcd7b8;"/>
    <path d="M248.86,234.55c-1.38.05-2.06-1.89-.9-2.7,9.63-7.23,21.92-4.25,22.44-4.12,1.89.45,1.16,3.41-.73,2.91-.15-.49-12.78-2-20.81,3.91Z" style="fill: #231f20;"/>
    <path d="M284.74,233.47c-5.04-1.56,4.47-11.33,20.29-5.26,1.83.65.79,3.51-1.03,2.82-15.16-5.07-16.49,1.8-19.26,2.45Z" style="fill: #231f20;"/>
    <path d="M266.75,272.02c-2.32-.41-2.64-2.53-3.32-6.54l.99-.12c.85,4.6,1,5.63,2.69,5.59.57-.22.96-.83.96-1.52-.01-4.66.97-6.87,1.4-7.61,9.58-19.97,2.3-28.94,2.06-28.36l.62-.78c.5-.24,8.17,8.87-1.82,29.64-.3.52-1.27,2.57-1.26,7.11.01,1.35-1,2.58-2.32,2.6Z" style="fill: #231f20;"/>
    <path d="M277.06,273.56c-5.75,0-8.87-4.67-8.9-4.73l.84-.55c1.22,3.21,10.01,6.71,16.05,1.33l.57.82c-2.81,1.94-5.47,3.09-8.56,3.13Z" style="fill: #231f20;"/>
    <path d="M283.73,273.19c-1.03,0-2.17-.05-3.4-.15l.08-1c10.06.9,12.35-1.77,8.93-6.33l.75-.66c3.71,3.81,1.42,8.74-6.35,8.14Z" style="fill: #231f20;"/>
    <path d="M263.93,295.88c-3.83-.69,6.95-11.7,17.9-12.87,4.53-1.03,18.99,3.16,20.56,9.63-.38.41-1.01.43-1.41.06-15.08-14.67-29.48-5.42-37.05,3.18Z" style="fill: #231f20;"/>
    <path d="M275.42,295.15l-.83-.55c2.47-4.54,11.01-8.97,15.77,0l-.85.53c-4.39-8.35-11.88-3.9-14.09.01Z" style="fill: #231f20;"/>
    <path d="M270.03,149.88c-26.69-.42-26.69-31.63,0-32.05,26.69.42,26.69,31.63,0,32.05ZM270.03,118.83c-25.38.4-25.37,29.65,0,30.05,25.38-.4,25.37-29.65,0-30.05Z" style="fill: #231f20;"/>
    <path d="M268.58,102.63c-69.21-.86-69.2-62.24,0-63.1,69.21.86,69.2,62.24,0,63.1ZM268.58,40.53c-67.89.83-67.88,60.27,0,61.1,67.89-.83,67.88-60.27,0-61.1Z" style="fill: #231f20;"/>
    <path d="M428.13,162.14c-64.52-1.01-64.52-75.37,0-76.38,64.52,1.01,64.51,75.37,0,76.38ZM428.13,86.76c-63.21.99-63.2,73.4,0,74.38,63.21-.99,63.2-73.4,0-74.38Z" style="fill: #231f20;"/>
    <path d="M324.51,235.75c-5.38-4.49-1.1-7.13-.17-12.91l.96.26-1.55,5.67c-2.57,1.63.68,6.04,1.38,6.18l-.62.79Z" style="fill: #231f20;"/>
    <g>
      <path d="M271.23,206.03s-24.82,35.66-47.77,34.62c0,0-6.51-59.6,44.87-48.89,0,0,53.44-23.83,59.94,35.22,0,0-40.11-2.95-57.05-20.95Z" style="fill: #8b5e3c;"/>
      <path d="M224.4,241.17c-.33,0-.65,0-.96-.02l-.43-.02-.05-.43c-.03-.29-3-29.25,12.38-43.21,7.77-7.05,18.85-9.16,32.93-6.25,2.06-.87,24.54-9.98,41.54-.23,10.62,6.09,17,18.18,18.96,35.92l.07.6-.6-.04c-.4-.03-39.84-3.12-56.96-20.67-1.45,2-7.19,9.73-14.99,17.28-14.42,13.96-25.17,17.08-31.9,17.08ZM223.92,240.17c.17,0,.35,0,.52,0,22.15,0,46.13-34.08,46.37-34.43l.35-.51.42.45c15.48,16.46,51.05,20.28,56.12,20.74-1.99-17.07-8.18-28.69-18.39-34.55-17.3-9.93-40.56.23-40.79.33l-.15.07-.16-.03c-13.82-2.88-24.66-.87-32.21,5.98-13.99,12.7-12.41,38.3-12.1,41.93Z" style="fill: #231f20;"/>
    </g>
    <path d="M264.66,202.16s-16.57,28.25-35.11,32.52" style="fill: #8b5e3c;"/>
    <path d="M229.55,235.68c-1.14.03-1.37-1.74-.22-1.97,19.39-4.23,33.59-33.53,35.84-32.41,1.52,1.83-3.61,7.33-10.35,16.17-8.82,10.31-17.17,16.48-25.27,18.22Z" style="fill: #231f20;"/>
    <path d="M258.56,198.25s-15.91,30.76-31.21,31.09" style="fill: #8b5e3c;"/>
    <path d="M227.35,230.34c-1.27.01-1.31-1.99-.02-2,15.98-.38,29.49-32.04,31.69-30.98,1.72,2.19-15.93,32.04-31.67,32.98Z" style="fill: #231f20;"/>
    <path d="M277.1,202.16s10.77,16.96,41.81,17.42" style="fill: #8b5e3c;"/>
    <path d="M318.91,220.58c-30.68.25-47.72-20.41-40.97-18.96.11.17,10.91,16.52,40.99,16.96,1.28,0,1.28,2.02-.01,2Z" style="fill: #231f20;"/>
    <path d="M280.52,198.25s22.88,17.56,38.94,15.54" style="fill: #8b5e3c;"/>
    <path d="M316.77,214.96c-14.52.32-43.17-17.6-35.65-17.5.23.17,22.74,17.28,38.21,15.35.55-.07,1.05.32,1.12.87-.02,1.75-2.49,1.1-3.67,1.29Z" style="fill: #231f20;"/>
    <path d="M128.45,335.81c-15.25,8.58-86.33,111.32-68.09,133.95,26.49,16.82,148.98-7.03,91.68-88.5,0,0-23.36,27.57-48.59,64.09,22.54-29.85,85.54-117.78,109.96-156.56,1.34-3.68,25.19-21.25,25.19-21.25,0,0,34.74-10.53,26.05-12.34,0,0-15.82-1.14-26.05,3.98,0,0,22.23-22.83,18.19-25.38,0,0-4.93-3.61-24.35,16.28,9.36-12.01,35.32-51.56-10.89-6.48,0,0,16.68-21.56,15.63-24.58,0,0-2.84-11.46-30.13,24.58,0,0-8.53,10.46-7.39,30.92,0,0-68.68,56.28-71.21,61.28Z" style="fill: #fcd7b8;"/>
    <path d="M86.16,475.82c-11.21,0-20.56-2.12-26.07-5.65-10.69-15.69,13.02-59.5,22.67-77.14,41.01-63.98,69.83-78.29,116.39-118.72-1.05-20.26,7.43-30.91,7.52-31.01,21.93-31.5,44.82-37.21,19.62-5.12,26.96-26.34,27.62-15.77,10.22,7.2,15.58-14.81,20.09-12.34,20.59-11.97,3.21,4.73-11.61,18.57-16.37,24.3,11.28-3.66,24.68-4.39,25.83-1.65.14,3.22-21.06,9.92-27.71,11.94-6.65,4.9-23.9,18.08-24.95,20.97-2.04,4.64-62.78,92.35-65.42,95.83,2.54-3.08,2.82-3.4,3.6-4.33,46.32,61.13-20.4,94.6-65.91,95.37ZM234.6,217.79c-3.01,0-10.29,3.85-27.15,26.12-.05-.02-8.56,11.11-7.28,30.85-67.4,58.95-65.43,44.9-116.56,118.78-19.29,32.49-30.89,70.74-22.99,75.79,26.24,16.87,147.22-7.08,91.39-87.27-6.39,6.3-48.86,64.38-48.17,63.58l-.81-.58c29.91-40.47,95.4-132.11,109.9-156.44,1.35-3.72,22.91-19.68,25.36-21.48,14.93-4.59,27.51-9.58,27.24-11.04-.62-1.15-20.17-.99-29.36,4.85,5.7-5.84,20.63-21.57,20.59-26.28-.3-.95-5.05-3.37-23.98,15.76l-.76-.65c17.6-23.49,26.83-42.42-10.14-5.83l-.75-.66c7.6-10.84,20.11-24.84,13.45-25.51Z" style="fill: #231f20;"/>
    <path d="M255.01,298.6l-1.47,24.64s4.84,16.86,12.5,23.89c17.35,14.37,43.49,13.72,54.96-8.82,5.32-10.74-.12-34.32-2.11-46.12,0,0-29.39,47.97-63.87,6.41Z" style="fill: #fcd7b8;"/>
    <path d="M291.11,357.21c-22.85.54-34.59-19.14-38.07-33.91-.03-.12,1.57-25.87,1.55-25.99,24.51,33.26,54.4,11.81,64.56-6.51,5.9,28.78,12.57,63.45-28.05,66.41ZM254.05,323.18c.38,1.27,5.13,16.97,12.33,23.58,15.44,15.06,46.58,11.17,54.16-8.65,5.05-9.55.12-33.47-1.93-44.58-14.37,22.35-42.03,33.27-63.17,6.35l-1.39,23.31Z" style="fill: #231f20;"/>
    <path d="M253.54,323.24l-11.7.87s5.18,37,32.79,43.12c17,5.17,73.8,4.68,60.61-50.44l-11.53.82c8.61,39.08-57.2,63.79-70.18,5.63Z" style="fill: #ac6f68;"/>
    <path d="M293.5,369.56c-40.08,3.45-50.72-33.74-52.22-45.91l12.69-.95c8.07,52.46,76.95,39.79,69.18-5.56l12.46-.89c7.99,40.48-13.89,53.05-42.12,53.3ZM242.43,324.57c.78,4.52,7.16,36.59,32.32,42.17,17.24,5.03,72.66,4.62,60.14-49.42l-10.6.75c6.87,43.72-60.33,59.83-71.16,5.7l-10.69.8Z" style="fill: #ac6f68;"/>
    <path d="M233.5,72.27s-2.94,11.23,10.85,7.66c0,0,12.4-.33,6.39-8.84l-17.24,1.19Z" style="fill: #e0ad69;"/>
    <path d="M239.57,81.13c-6.42.59-7.68-6.57-6.46-9.33l17.88-1.23c6.96,9.1-6.67,10.29-11.42,10.56ZM233.91,72.74c-1.37,5.61,3.37,9.1,10.43,6.68,2.33.19,10.95-1.8,6.15-7.83l-16.58,1.14Z" style="fill: #231f20;"/>
    <path d="M233.57,67.93s-3.58,2.81,0,3.83l17.5-.89s2.94-1.66,0-2.94h-17.5Z" style="fill: #8b5e3c;"/>
    <path d="M233.52,72.26c-3.51-.67-1.49-4.1-.12-4.83l17.87.04c2.63.87,1.36,3.33.05,3.83-.23.17-17.54.89-17.8.96ZM233.75,68.43c-1.07.85-2.04,2.45-.12,2.83,0,0,17.29-.88,17.29-.88,5.75-3.62-17.22-1.35-17.17-1.94Z" style="fill: #231f20;"/>
    <path d="M232.8,66.74c-.47-.9,19.24-.9,18.76,0,.47.89-19.24.89-18.76,0Z" style="fill: #54ba63;"/>
    <path d="M242.18,67.94c-9.88,0-9.88-.78-9.88-1.2s0-1.2,9.88-1.2,9.88.78,9.88,1.2,0,1.2-9.88,1.2ZM235.62,66.74c2.88.26,10.25.26,13.13,0-2.76-.26-10.37-.26-13.13,0Z" style="fill: #231f20;"/>
    <path d="M233.4,65.55h17.5c2.88-9.75-17.4-16.9-17.5,0Z" style="fill: #e0ad69;"/>
    <path d="M251.31,66.05h-18.37c-1.64-16.44,21.53-12.78,18.37,0ZM233.86,65.05h16.6c.87-4.35-3.24-9.32-9.06-9.21-2.74-.34-8.58,4.08-7.54,9.21Z" style="fill: #231f20;"/>
    <polygon points="256.97 60.45 261.54 75.86 271.82 75.86 275.73 60.45 256.97 60.45" style="fill: #ed1c24;"/>
    <path d="M272.21,76.36h-11.04l-4.86-16.41h20.07l-4.17,16.41ZM261.91,75.36h9.52l3.66-14.41h-17.45l4.27,14.41Z" style="fill: #231f20;"/>
    <polygon points="259.61 60.45 257.91 51.84 260.36 50.7 262.96 60.45 259.61 60.45" style="fill: #ffde17;"/>
    <path d="M263.61,60.95h-4.42l-1.85-9.4,3.34-1.56,2.92,10.96ZM260.02,59.95h2.29l-2.28-8.54-1.55.72,1.54,7.82Z" style="fill: #231f20;"/>
    <polygon points="272.93 59.85 274.42 50.83 277.08 50.77 275.92 59.52 272.93 59.85" style="fill: #ffde17;"/>
    <path d="M272.32,60.42l1.67-10.07,3.66-.1-1.29,9.72-4.04.45ZM274.85,51.32l-1.32,7.95,1.95-.22,1.03-7.78-1.66.04Z" style="fill: #231f20;"/>
    <polygon points="269.8 60.3 269.6 51.34 272.26 50.85 272.31 59.97 269.8 60.3" style="fill: #ffde17;"/>
    <path d="M269.31,60.87l-.21-9.94,3.66-.67.06,10.16-3.5.46ZM270.11,51.76l.17,7.98,1.52-.2-.04-8.08-1.65.3Z" style="fill: #231f20;"/>
    <polygon points="267.57 60.28 265.54 51.66 267.99 50.51 270.23 60.28 267.57 60.28" style="fill: #ffde17;"/>
    <path d="M270.86,60.78h-3.68l-2.21-9.4,3.38-1.58,2.52,10.98ZM267.97,59.78h1.63l-1.96-8.55-1.52.71,1.85,7.84Z" style="fill: #231f20;"/>
    <polygon points="262.57 60 261.5 51.75 263.95 50.61 265.96 60.12 262.57 60" style="fill: #ffde17;"/>
    <path d="M266.58,60.64l-4.45-.15-1.18-9.04,3.35-1.56,2.28,10.75ZM263.01,59.52l2.32.08-1.75-8.27-1.54.72.97,7.47Z" style="fill: #231f20;"/>
    <path d="M261.6,71.93c-.42-.15-.7-9.31,0-9.73,2.88-1.92,3.68,2.49,5,3.56,1.57-1.69.59-5.32,5-3.56.56.3.36,8.89,0,9.28-4.84,2.96-1.88-4-2.74-5.77-.31-.21-1.76,2.62-2.26,2.73s-1.92-2.53-2.76-2.73c-1.37.54,2.22,8.63-2.24,6.22Z" style="fill: #ffde17;"/>
    <path d="M263.08,72.79c-.61,0-1.25-.24-1.58-.37l.1-.5-.17.47c-.94-.6-1.19-8.98-.09-10.63,2.67-1.71,4.17,1.11,5.25,3.31.69-3.28,2.19-4.66,5.25-3.32,1.12,1.36.6,9.02.13,10.06-4.73,2.73-3.54-1.27-3.5-4.96-1.84,3.44-2.58,1.79-4.42-.43-.25,1.97,1.59,6.4-.95,6.37ZM261.96,71.53c1.18.42,1.4.23,1.44.16.16-1.03-.8-6.3-.03-6.33,1.17-.74,2.24,1.66,3.18,2.51.59-.72,1.68-2.86,2.36-2.71l.23.13c.64-.39.09,5.01.18,6.37.42.04,1.53-.27,1.86-.49.25-.96.39-7.5.06-8.58-.62-.25-2.23-.47-2.63-.05-1.02,2.26-1.63,6.12-3.73,1.58-.67-1.53-1.36-2.3-2.95-1.53-.41.97-.29,7.69.03,8.95ZM271.16,71.22h0ZM261.95,62.53h0ZM271.21,62.5h0s0,0,0,0Z" style="fill: #231f20;"/>
    <polygon points="258.29 93.62 256.48 84.19 257.46 84 258.83 91.14 262.67 85.75 267.47 91.18 268.08 84.05 269.08 84.14 268.26 93.59 262.75 87.36 258.29 93.62" style="fill: #231f20;"/>
    <path d="M274.64,93.38c-5.4.07-5.4-8.4,0-8.33,5.4-.07,5.4,8.4,0,8.33ZM274.64,86.06c-4.1-.06-4.1,6.39,0,6.33,4.1.06,4.1-6.38,0-6.33Z" style="fill: #231f20;"/>
    <path d="M281.02,92.88h-1s0-4.65,0-12.25h1c0,7.61,0,12.25,0,12.25Z" style="fill: #231f20;"/>
    <rect x="285.57" y="84.1" width="1" height="8.29" style="fill: #231f20;"/>
    <rect x="282.14" y="83.6" width="8.18" height="1" style="fill: #231f20;"/>
    <path d="M297.43,88.24h-1v-6.13c1.42-2.16,2.01-4.24-.17-4.66l-2.29,1.91-.64-.77,2.61-2.17c2.65-.1,3.74,3.11,1.49,5.98v5.84Z" style="fill: #231f20;"/>
    <path d="M297.14,92.75c-1.78.02-1.78-2.77,0-2.75,1.78-.02,1.78,2.77,0,2.75ZM297.14,91.01c-.49,0-.49.75,0,.75.48,0,.48-.75,0-.75Z" style="fill: #231f20;"/>
    <path d="M131.51,149.56c-3.6,1.9-38.79-33.86-33-33s26.19-28.48,26.71-24.01,30.23,27.29,32.01,32.01-22.12,23.1-25.72,25Z" style="fill: #32b44a;"/>
    <path d="M131.24,150.11c-6.51-1.57-32.69-26.92-33.78-33.59,5.73.99,22.82-24.02,27.63-24.89,1.34,5.16,30.28,27.55,32.6,32.76,1.97,5.23-22.8,23.95-25.96,25.62-.14.07-.31.11-.5.11ZM98.36,117.04c.2,2.5,22.45,27.63,32.91,32.07,4.09-2.16,27.06-20.21,25.49-24.38-1.87-4.54-33.08-29.08-32.04-32.14-5.28,3.61-22.77,26.84-26.36,24.45Z" style="fill: #231f20;"/>
    <polygon points="136.42 104.92 111.06 132.78 119.25 140.91 145.59 113.08 136.42 104.92" style="fill: #231f20;"/>
    <path d="M119.26,141.63l-8.9-8.83,26.02-28.57,9.93,8.83-27.05,28.58ZM111.75,132.76l7.49,7.44,25.63-27.09-8.42-7.49-24.71,27.13Z" style="fill: #231f20;"/>
    <path d="M114.34,131.44l5.94,6.01,2.63-2.55c-5.21-3,.69-2.11,2.08-2.21,5.28-3.14-4.18-1.64-4.8-2.01.61-4.67,1.28-6.29-2.98-2.05,2.26,2.75.73,3.32-1.21.93l-1.66,1.87Z" style="fill: #ffde17;"/>
    <path d="M120.28,138.15l-6.62-6.69,2.34-2.65c.49.6,1.35,1.47,1.82,1.73-.18-.47-.81-1.39-1.29-1.95,2.49-2.56,4.07-3.36,4.16-3.13.53.62.62.35.08,4.71,7.01-.06,7.99.3,4.36,3.02-1.3-.08-3-.07-3.7.04.41.41,1.56,1.14,2.3,1.55l-3.45,3.36ZM115.03,131.42l5.26,5.32,1.81-1.76c-3.49-2.17-1.54-3.23,2.75-2.81.41-.29.81-.61,1.04-.84-1.06-.15-4.16-.19-6.29-.15.24-1.44.52-3.56.53-4.49-.5.39-1.41,1.2-2.25,1.99,2.06,2.29.46,4.32-1.87,1.63l-.98,1.11ZM126.29,131.42h0Z" style="fill: #231f20;"/>
    <polygon points="121.76 123.85 127.95 129.8 129.62 128.04 123.34 122.42 121.76 123.85" style="fill: #ffde17;"/>
    <path d="M127.97,130.51l-6.94-6.68,2.31-2.09,7,6.27-2.37,2.5ZM122.49,123.86l5.44,5.23.97-1.02-5.56-4.98-.85.77Z" style="fill: #231f20;"/>
    <path d="M124.13,121.03l6.59,6.07,1.59-1.9s-4.32-2.49-2.36-2.58,3.88,1.13,3.88,1.13l1.43-1.51c-4.09-3.53-2.33-4.78,1.1-1.11l1.26-1.17-7.43-6.01-2.18,2.81c6.2,5.81,3.11,5.06-1.72,2.05l-2.16,2.23Z" style="fill: #ffde17;"/>
    <path d="M130.76,127.83l-7.35-6.77,2.8-2.88c1.54.97,3.73,2.15,4.71,2.46-.58-.84-2.28-2.61-3.58-3.82l2.77-3.57,8.27,6.7-2.04,1.89c-.9-.97-2.4-2.23-2.98-2.45.26.56,1.61,1.99,2.61,2.84l-2.07,2.18c-.54-.29-1.57-1.14-3.73-1.27.49.48,1.91,1.41,2.9,1.95l-2.31,2.76ZM124.85,121.01l5.82,5.37.88-1.05c-6.32-3.9.4-3.59,2.19-2.22l.81-.85c-3.46-2.58-2.56-6.26,1.82-1.83l.48-.45-6.58-5.33-1.59,2.05c7.31,6.89,1.55,5.28-2.31,2.73l-1.53,1.57Z" style="fill: #231f20;"/>
    <path d="M135.69,107.85l1.93,1.55s-3.38,7.03,0,4.55c5.25-3.85,5.27-.94,1.63,4.27l-2.41-.67,1.15-1.86c-6.8,2.68-4.56-7.42-2.31-7.84Z" style="fill: #ffde17;"/>
    <path d="M139.46,118.8l-3.39-.95.86-1.39c-6.75,1.42-3.36-9.78-1.11-9.14l2.42,1.94c-.86,1.68-1.74,4.17-1.63,4.7,6.72-5.09,6.97-.39,2.85,4.84ZM137.62,117.24l1.42.4c8.01-12.94-8,5.45-2.05-8.1l-1.39-1.11c-2.38,2.23-3.23,9.65,3.56,6.31l-1.55,2.51Z" style="fill: #231f20;"/>
    <rect x="88.48" y="132.95" width="18.78" height="33.37" transform="translate(-79.1 124.16) rotate(-48.62)" style="fill: #ed1c24;"/>
    <path d="M104.22,168.41l-25.79-22.72,13.07-14.84,25.79,22.72-13.07,14.84ZM79.85,145.6l24.29,21.39,11.75-13.34-24.29-21.39-11.75,13.34Z" style="fill: #231f20;"/>
    <path d="M91.56,131.56c-3.47-3.82-16.3,11.34-12.41,14.09,3.58,3.58,16.48-10.95,12.41-14.09Z" style="fill: #fddccc;"/>
    <path d="M80.83,146.81c-9.48-.81,6.97-20.41,11.05-15.63h0c4.13,3.7-6.19,14.85-11.05,15.63ZM89.79,131.35c-2.84-.1-13.59,11.52-10.32,13.92,3.63,3.24,17.57-13.41,10.32-13.92Z" style="fill: #231f20;"/>
    <path d="M116.3,152.74c-2.31-2.31-3.51,3.12-7.35,6.96-3.84,3.84-7.07,5.69-4.76,8,3.29,3.71,17.12-11.58,12.12-14.96Z" style="fill: #fddccc;"/>
    <path d="M105.81,168.94c-6.5-1.62-.33-6.85,2.78-9.59,2.46-2.02,3.9-6.9,6.47-7.65,8.62,3.41-4.84,16.46-9.25,17.25ZM115.23,152.68c-2.18,1.09-3.55,5.38-5.93,7.37-1.61,1.76-5.31,4.41-5.39,6.06,1.4,6.87,16.86-9.9,12.04-13.02h0c-.36-.36-.6-.41-.71-.41Z" style="fill: #231f20;"/>
    <path d="M89.39,149.86c-5.54-9.2,2.63-9.93,7.19-7.92l-.34.94c-5.26-1.98-10.46-.99-5.97,6.5l-.88.47Z" style="fill: #231f20;"/>
    <path d="M94.31,152.77c-6.61-.71-.28-10.82,3.83-7.22,2.62,2.16-.6,7.46-3.83,7.22ZM96.21,145.86c-2.25-.11-5.07,3.54-3.16,5.48,2.81,2.5,7.82-5.03,3.16-5.48Z" style="fill: #231f20;"/>
    <polygon points="97.3 156.52 95.02 154.54 101.5 147.4 102.24 148.07 96.45 154.45 97.96 155.77 97.3 156.52" style="fill: #231f20;"/>
    <rect x="97.87" y="154.14" width="8.89" height="1" transform="translate(-73.33 95.22) rotate(-37.82)" style="fill: #231f20;"/>
    <rect x="99.6" y="155.75" width="9.24" height="1" transform="translate(-78.46 199.87) rotate(-69.73)" style="fill: #231f20;"/>
    <rect x="101.81" y="154.69" width="1" height="3.89" transform="translate(-83.14 131.97) rotate(-49.27)" style="fill: #231f20;"/>
    <path d="M462.8,123.95c-.1.16-5.3,3.25-5.71.08-1.66-4.77-6.87,8.12-10.67,2.9l2.95,23.17,11.1-.75,2.34-25.4Z" style="fill: #b7e2e5;"/>
    <path d="M448.93,150.64l-3.31-25.96c3.82,7.84,6.47-2.02,10.79-2.2.58-.04,1.14,1.1,1.34,1.96,1.44,1.65,4.42-.77,5.65-1.47l-2.47,26.87-12,.81ZM447.09,128.31l2.71,21.26,10.2-.69,2.21-23.99c-2.58,1.47-5,1.82-6.02-1.45-2.5.22-4.65,6.55-9.1,4.87Z" style="fill: #231f20;"/>
    <path d="M409.93,122.78c.72,7.78.55,18.12.47,22.4-.04,1.99-7.43,1.68-7.8.52-1.22-3.83-.91-10.91-.81-22.15.1-11.75-1.85-20.93,1.16-21.64,8.26-1.96,5.32,3.05,6.98,20.87Z" style="fill: #aea8d3;"/>
    <path d="M406.46,147.12c-7.83.68-4.54-9.27-5.22-18.77,1.24-6.83-3.03-24.11,1.6-26.93,10.92-3.06,5.51,13.4,7.59,21.31h0c.74,8,.54,18.88.47,22.46.36,1.15-2.74,2.12-4.44,1.93ZM405.7,102.01c-5.13-.27-3.87,3.47-3.72,11.06.87,8.47-.7,26.62,1.1,32.48.24.46,5.63,1.28,6.82-.37.07-3.56.27-14.4-.47-22.34h0c-1.58-6.2,1.62-20.24-3.73-20.82Z" style="fill: #231f20;"/>
    <path d="M448.94,150.64l-5.01-33.82,20.24-2.23-3.24,35.23-11.99.81ZM445.07,117.7l4.72,31.88,10.21-.69,3.05-33.16-17.99,1.98Z" style="fill: #231f20;"/>
    <path d="M449.96,128.06c.13-9.45-13.95-9.45-13.82,0-.13,9.45,13.95,9.45,13.82,0Z" style="fill: #231f20;"/>
    <path d="M443.05,135.84c-9.61.14-9.61-15.71,0-15.56,9.61-.14,9.61,15.71,0,15.56ZM443.05,121.28c-8.31-.12-8.31,13.69,0,13.56,8.31.12,8.31-13.69,0-13.56Z" style="fill: #231f20;"/>
    <path d="M446.72,128.53c.07,4.29-7.4,4.29-7.33,0-.07-4.29,7.4-4.29,7.33,0Z" style="fill: #fef2ee;"/>
    <path d="M443.06,132.34c-5.4.07-5.4-7.69,0-7.62,5.4-.07,5.4,7.69,0,7.62ZM443.06,125.72c-4.1-.05-4.1,5.67,0,5.62,4.11.05,4.11-5.67,0-5.62Z" style="fill: #231f20;"/>
    <path d="M428.1,154.02c-30.93-2.92-26.54-19.85-8.02-30.34-1.5-19.34-11.67-17.33,12.16-17.03,2.47,2.08-3.59,8.43-4.39,9.76-.12,6.28,1.71,7.62,2.13,7.84,8.88-1.8,15.7,8.09,15.99,8.51,4.23,12.58-7.2,21.97-17.87,21.26ZM422.99,107.48c-11.11-.61-1.71,2.61-1.86,16.75-10.56,5.86-27.53,21.82,1.37,28.25,5.54,1.86,22.7.13,23.42-13.98h0s-.03-2.69-.82-5.23c-.55-.82-7.25-9.84-15.18-7.98-.48,0-3.36-1.36-3.07-9.25,2.02-2.47,5.32-6.89,5.01-8.4-.97-.03-5.23-.16-8.87-.16Z" style="fill: #231f20;"/>
    <polygon points="279.58 71.81 283.36 48.79 297.32 67.59 279.58 71.81" style="fill: #ffde17;"/>
    <path d="M278.97,72.47l4.09-24.93,15.12,20.36-19.21,4.57ZM283.66,50.03l-3.46,21.12,16.27-3.87-12.8-17.25Z" style="fill: #231f20;"/>
    <polygon points="278.59 75.39 279.62 71.85 297.36 67.71 299.42 69.98 278.59 75.39" style="fill: #e0ad69;"/>
    <path d="M277.86,76.09l1.36-4.66,18.3-4.28,2.82,3.1-22.48,5.84ZM280.02,72.27l-.7,2.41,19.18-4.98-1.31-1.44-17.16,4.01Z" style="fill: #231f20;"/>
    <path d="M287.19,58.07c.02,1.64-2.55,1.64-2.52,0-.02-1.64,2.55-1.64,2.52,0Z" style="fill: #ed1c24;"/>
    <path d="M285.93,59.83c-2.28.03-2.29-3.56,0-3.52,2.28-.03,2.28,3.56,0,3.52ZM285.93,57.31c-.99-.01-.99,1.54,0,1.52.99.01.99-1.54,0-1.52Z" style="fill: #ed1c24;"/>
    <path d="M285.93,67.44c.02,1.64-2.55,1.64-2.52,0-.02-1.64,2.55-1.64,2.52,0Z" style="fill: #ed1c24;"/>
    <path d="M284.67,69.2c-2.28.03-2.29-3.56,0-3.52,2.28-.03,2.28,3.56,0,3.52ZM284.67,66.68c-.99-.01-.99,1.54,0,1.52.99.01.99-1.54,0-1.52Z" style="fill: #ed1c24;"/>
    <path d="M292.84,66.04c.02,1.64-2.55,1.64-2.52,0-.02-1.64,2.55-1.64,2.52,0Z" style="fill: #ed1c24;"/>
    <path d="M291.58,67.8c-2.29.03-2.29-3.56,0-3.52,2.28-.03,2.29,3.56,0,3.52ZM291.58,65.28c-.99-.01-.99,1.54,0,1.52.99.01.99-1.54,0-1.52Z" style="fill: #ed1c24;"/>
    <path d="M288.45,62.76c.02,1.64-2.55,1.64-2.52,0-.02-1.64,2.55-1.64,2.52,0Z" style="fill: #ed1c24;"/>
    <path d="M287.19,64.52c-2.28.03-2.29-3.56,0-3.52,2.29-.03,2.29,3.56,0,3.52ZM287.19,61.99c-.99-.01-.99,1.54,0,1.52.99.01.99-1.54,0-1.52Z" style="fill: #ed1c24;"/>
    <path d="M400.52,146.62c0,1.6-1.3,1.58-2.9,1.58-7.74.02,1.66-9,2.9-1.58Z" style="fill: #eb7cb1;"/>
    <path d="M397.77,148.69h-.07l-.15-.5v.5c-4.74.9-3.91-5.58.07-5.48,3.94-.13,4.83,6.34.15,5.48ZM397.55,147.69c3.58.75,2.91-3.36.07-3.48-2.71.05-3.58,4.17-.07,3.48Z" style="fill: #231f20;"/>
    <path d="M408.76,103.49c0,1.91-1.77,1.44-3.68,1.44s-3.92.83-3.92-1.08c-.17-3.05,7.68-3.49,7.6-.37Z" style="fill: #231f20;"/>
    <path d="M402.57,105.61c-3.3-.35-2.56-4.86,2.52-4.64,2.23-.46,5.59,1.35,3.66,3.97-1.55,1.06-4.27.25-6.17.67ZM405.08,101.98c-2.5-.03-3.93.89-3.26,2.47,1.47.2,4.8.17,6.22-.22.76-1.67-.44-2.35-2.96-2.25Z" style="fill: #231f20;"/>
    <path d="M407.7,152.3c0,1.6-1.3,1.58-2.9,1.58-7.74.02,1.66-9,2.9-1.58Z" style="fill: #ec8dba;"/>
    <path d="M404.95,154.38h-.07l-.15-.5v.5c-4.73.91-3.92-5.58.07-5.48,3.94-.13,4.83,6.34.15,5.48ZM404.73,153.38c3.58.75,2.91-3.35.07-3.48-2.71.05-3.58,4.17-.07,3.48Z" style="fill: #231f20;"/>
    <path d="M421.03,122.18c4.84.8,5.57-2.92,6.35-.76,2.4,6.03,2.04,2.35,8.84,4.28,20.59,7.75,6.69,37.63-22.54,23.83-11.15-5.32-10.03-13.35,4.42-23.47,3.06-1.65,2.87-2.29,2.92-3.88Z" style="fill: #b7e2e5;"/>
    <polygon points="257.07 60.3 255.86 53.22 258.92 54.44 260.19 60.3 257.07 60.3" style="fill: #ffde17;"/>
    <path d="M260.81,60.8h-4.15l-1.44-8.38,4.13,1.65,1.46,6.72ZM257.49,59.8h2.07l-1.08-4.99-1.98-.79.99,5.78Z" style="fill: #231f20;"/>
    <path d="M284.67,177.14c.17,11.75-18.28,11.75-18.11,0-.17-11.75,18.28-11.75,18.11,0Z" style="fill: #fff;"/>
    <path d="M275.61,186.7c-12.39.17-12.39-19.28,0-19.11,12.39-.17,12.39,19.28,0,19.11ZM275.61,168.59c-11.1-.15-11.1,17.27,0,17.11,11.1.15,11.1-17.27,0-17.11Z" style="fill: #231f20;"/>
    <path d="M183.82,195.82c-.08,17.33-26.42,17.32-26.5,0,.08-17.32,26.42-17.32,26.5,0Z" style="fill: #fff;"/>
    <path d="M170.57,209.57c-17.98-.1-17.97-27.4,0-27.5,17.97.1,17.97,27.4,0,27.5ZM170.57,183.07c-16.67.09-16.67,25.41,0,25.5,16.67-.09,16.66-25.41,0-25.5Z" style="fill: #231f20;"/>
    <path d="M209.81,216.55c.17,11.31-17.59,11.31-17.43,0-.17-11.31,17.59-11.31,17.43,0Z" style="fill: #fff;"/>
    <path d="M201.1,225.77c-11.95.17-11.95-18.59,0-18.43,11.95-.17,11.95,18.59,0,18.43ZM201.1,208.34c-10.65-.15-10.65,16.58,0,16.43,10.65.15,10.65-16.58,0-16.43Z" style="fill: #231f20;"/>
    <path d="M404.19,186.2c-.09,19.96-30.43,19.96-30.52,0,.09-19.96,30.43-19.95,30.52,0Z" style="fill: #fff;"/>
    <path d="M388.93,201.96c-20.61-.11-20.6-31.41,0-31.52,20.6.11,20.6,31.41,0,31.52ZM388.93,171.44c-19.3.1-19.3,29.42,0,29.52,19.3-.1,19.3-29.42,0-29.52Z" style="fill: #231f20;"/>
    <path d="M365.87,216.55c.18,12.37-19.25,12.37-19.07,0-.18-12.37,19.25-12.37,19.07,0Z" style="fill: #fff;"/>
    <path d="M356.33,226.59c-13.02.18-13.02-20.25,0-20.07,13.01-.18,13.01,20.25,0,20.07ZM356.33,207.52c-11.72-.16-11.72,18.23,0,18.07,11.72.16,11.72-18.23,0-18.07Z" style="fill: #231f20;"/>
    <path d="M388.02,416.51s1.32,58.83-6.59,57.42c0,0-62.96-26.34-82.6-18.55,0,0-22.87,9.94-21,14.59s21.6-10.05,23.16-8.67-21.95,11.05-18.92,14.96c0,0,.13,3.17,18.93-10.05,0,0-15.72,10.1-14.85,13.31,0,0-.02,4.16,16.71-7.64-12.08,9.42-10.85,16.22,3.49,4.05,2.44-1.7-3.66,6.42-3.05,7.69,2.06,4.33,13.93-6.81,13.93-6.81s27.47,9.34,42.57,21.96c86.48,66.91,56.2-34.7,65.85-85.47l-37.63,3.21Z" style="fill: #fcd7b8;"/>
    <path d="M405.18,521.3c-9.04,2.39-42.13-17.91-45.7-22.15-14.05-11.75-39.22-20.76-42.14-21.78-3.66,4.41-21.31,15.15-11.36-.55-5.55,5.9-18.54,10.43-8.32-.83-8.56,6.29-16.61,6.33-8.75-1.38-3.97,1.99-7.49,4.26-7.57.49-.27-3.05,14.45-10.18,18.94-13.37-5.55,1.62-19.34,13.15-22.9,8.43-1.95-4.86,17.37-13.55,21.26-15.24,8.27-3.28,24.75-1.14,49,6.34,18.58,5.3,32.52,12.66,34.88,11.85,4.91-4.28,5.41-39.36,4.99-57.05.59-.05,38.08-3.25,38.66-3.3-.02.44-5.09,93.27-5.12,93.78-1.73,9.83-7.14,14.78-15.87,14.78ZM317.11,476.23c.67.26,27.7,9.43,43.01,22.15.33.27,34.09,27.32,51,20.93,4.74-1.79,7.76-6.13,8.96-12.9,0,0,5.05-92.57,5.05-92.57l-36.6,3.13c-.71,5.57,2.64,55.07-7.28,57.42-.63-.26-63-26.18-82.23-18.55-19.13,6.94-32.08,23.11-6.12,8.57,5.94-3.11,7.95-4.91,8.66-2.88-1.04,3.09-21.06,10.54-19,14.54.39.08,2.62.09,12.55-6.46,2.46-1.78,4.69-3.24,5.62-3.84l.55.83c-4.15,2.81-15.39,10.4-14.64,12.9.92.54,3.47.61,15.94-8.05l.6.79c-13.59,11.39-8.27,13.01,2.89,3.25,1.98-.89,1.67.58-.2,3.53-7.09,11.33,8.45.52,11.24-2.8Z" style="fill: #231f20;"/>
    <path d="M300.16,551.67c-12.65,0-27.27-4.73-43.52-18.86-31.1-32.6-100.89.29-118.34,14.62l-.59-.81c22.26-18.51,91.22-45.13,119.58-14.56,43.1,35.39,67.16,12.18,89.3.07,11.67-3.92,85.27-22.33,93.41,10.71l-.99.11c-8.43-31.93-80.66-13.7-92.01-9.91-13.6,7.31-25.43,18.36-46.84,18.64Z" style="fill: #231f20;"/>
    <path d="M175.17,598.63c-12.65,0-27.27-4.73-43.52-18.86l.66-.75c43.11,35.4,67.16,12.18,89.3.07,11.65-3.92,85.29-22.32,93.41,10.71l-.99.11c-8.42-31.93-80.66-13.7-92.01-9.91-13.6,7.31-25.43,18.36-46.84,18.64Z" style="fill: #231f20;"/>
  </g>
  <g id="hotspots">
    <path id="hotspotSnacks" d="M92.04,81.16c-.42-24.4-36.72-24.4-37.13,0,.42,24.4,36.72,24.4,37.13,0Z" style="fill: #ed1c24;"/>
    <path id="hotspotWolt" d="M288.17,18.3c-.42-24.4-36.72-24.4-37.13,0,.42,24.4,36.72,24.4,37.13,0Z" style="fill: #ed1c24;"/>
    <path id="hotspotsVaeske" d="M455.38,65.28c-.42-24.4-36.72-24.4-37.13,0,.42,24.4,36.72,24.4,37.13,0Z" style="fill: #ed1c24;"/>
  </g>
</svg>